HIERARCHY
ROOT hip
{
	OFFSET 0.000000 0.000000 0.000000 
	CHANNELS 6 Xposition Yposition Zposition Xrotation Zrotation Yrotation
	JOINT abdomen
	{
		OFFSET 0.000000 3.402643 0.000000 
		CHANNELS 3 Xrotation Zrotation Yrotation
		JOINT chest
		{
			OFFSET 0.000000 8.438565 -0.680529 
			CHANNELS 3 Xrotation Zrotation Yrotation
			JOINT neck
			{
				OFFSET 0.000000 10.207942 -0.272212 
				CHANNELS 3 Xrotation Zrotation Yrotation
				JOINT head
				{
					OFFSET 0.000000 3.130431 0.000000 
					CHANNELS 3 Xrotation Zrotation Yrotation
					End Site
					{
						OFFSET 0.000000 3.130435 0.000000 
					}
				}
			}
			JOINT lCollar
			{
				OFFSET 3.470700 6.669187 -0.816635 
				CHANNELS 3 Yrotation Zrotation Xrotation
				JOINT lShldr
				{
					OFFSET 3.198488 0.000000 0.000000 
					CHANNELS 3 Zrotation Yrotation Xrotation
					JOINT lForeArm
					{
						OFFSET 10.139888 0.000000 0.000000 
						CHANNELS 3 Yrotation Zrotation Xrotation
						JOINT lHand
						{
							OFFSET 8.370511 0.000000 0.000000 
							CHANNELS 3 Zrotation Yrotation Xrotation
							End Site
							{
								OFFSET 4.083176 0.000000 0.000000 
							}
						}
					}
				}
			}
			JOINT rCollar
			{
				OFFSET -3.470700 6.669187 -0.816635 
				CHANNELS 3 Yrotation Zrotation Xrotation
				JOINT rShldr
				{
					OFFSET -3.198488 0.000000 0.000000 
					CHANNELS 3 Zrotation Yrotation Xrotation
					JOINT rForeArm
					{
						OFFSET -10.139888 0.000000 0.000000 
						CHANNELS 3 Yrotation Zrotation Xrotation
						JOINT rHand
						{
							OFFSET -8.370511 0.000000 0.000000 
							CHANNELS 3 Zrotation Yrotation Xrotation
							End Site
							{
								OFFSET -4.083176 0.000000 0.000000 
							}
						}
					}
				}
			}
		}
	}
	JOINT lThigh
	{
		OFFSET 5.308129 -1.633274 1.361059 
		CHANNELS 3 Xrotation Zrotation Yrotation
		JOINT lShin
		{
			OFFSET -2.041588 -20.007561 0.000000 
			CHANNELS 3 Xrotation Zrotation Yrotation
			JOINT lFoot
			{
				OFFSET 0.000000 -19.190928 -1.224953 
				CHANNELS 3 Xrotation Yrotation Zrotation
				End Site
				{
					OFFSET 0.000000 -2.449906 4.627600 
				}
			}
		}
	}
	JOINT rThigh
	{
		OFFSET -5.308129 -1.633274 1.361059 
		CHANNELS 3 Xrotation Zrotation Yrotation
		JOINT rShin
		{
			OFFSET 2.041588 -20.007561 0.000000 
			CHANNELS 3 Xrotation Zrotation Yrotation
			JOINT rFoot
			{
				OFFSET 0.000000 -19.190928 -1.224953 
				CHANNELS 3 Xrotation Yrotation Zrotation
				End Site
				{
					OFFSET 0.000000 -2.449906 4.627600 
				}
			}
		}
	}
}
MOTION
Frames: 13
Frame Time: 0.033333
-5.050713 48.527870 5.528976 0.537011 -0.009765 0.576172 0.000000 0.000000 0.000000 -3.797896 -0.156247 -0.341822 5.884361 0.341770 -0.722643 4.598572 -0.869140 0.068352 -1.683384 9.995231 -2.804930 -5.453351 3.005010 -7.433151 0.422876 -4.537303 10.130048 -0.251935 -3.996522 -3.383013 0.401992 -8.995782 -2.865736 5.553586 -10.305134 -9.209886 -0.148125 5.249408 14.639522 -0.801460 5.225269 -3.447626 3.756904 9.740625 5.738023 3.921255 -2.028790 8.252620 -5.965642 0.485447 -9.096889 5.328078 -8.100534 -4.361492 5.281693 2.508106 0.720066 -10.571096 -0.506934 5.824028 
-5.040902 48.532040 5.526719 0.576531 0.039061 0.527350 0.000000 0.000000 0.000000 -3.836792 -0.214841 -0.293003 5.913415 0.371066 -0.703110 4.548950 -0.976561 0.107406 -1.583057 10.138113 -2.835614 -5.656676 3.015092 -7.368888 0.438194 -4.583158 9.973522 -0.169707 -4.060147 -3.387971 0.475886 -8.990132 -2.896155 5.548451 -10.398837 -9.014447 -0.141202 5.327940 14.454740 -0.728231 5.151393 -3.439946 3.835700 9.653961 5.690956 3.684812 -2.026617 8.373415 -5.857273 0.463561 -9.061028 5.262915 -8.173717 -4.359321 5.276579 2.495995 0.719643 -10.542438 -0.523553 5.837172 
-5.038509 48.540199 5.519032 0.635198 0.048826 0.507821 0.000000 0.000000 0.000000 -3.856124 -0.253903 -0.293009 5.903193 0.419892 -0.683575 4.577362 -0.996090 0.156226 -1.655513 10.024681 -2.845112 -5.598040 3.201062 -7.469828 0.445788 -4.523737 10.198189 -0.362890 -3.944364 -3.375448 0.472335 -9.029225 -2.905797 5.689560 -10.482166 -9.228964 -0.149409 5.204013 14.893241 -0.650126 5.322377 -3.433887 3.863779 9.641593 5.749659 3.537198 -2.093682 8.468575 -5.794724 0.470060 -9.013988 5.262791 -8.173522 -4.369203 5.099407 2.504965 0.699590 -10.442664 -0.527782 5.855195 
-5.032218 48.532661 5.515070 0.645465 0.107418 0.498064 0.000000 0.000000 0.000000 -3.836023 -0.322260 -0.332081 5.805179 0.419888 -0.732402 4.830839 -1.025386 0.175753 -1.494725 10.075821 -2.854967 -5.763627 3.190087 -7.470270 0.472387 -4.520275 10.413897 -0.030812 -3.768192 -3.389189 0.454436 -9.057352 -2.886518 5.625097 -10.425648 -9.040836 -0.153547 5.308558 14.640392 -0.765614 5.119806 -3.443220 3.804143 9.572739 5.662856 3.659754 -2.070267 8.481687 -5.868751 0.482280 -9.042529 5.056959 -8.279453 -4.400365 5.489467 2.524296 0.733296 -10.611753 -0.519793 5.829263 
-5.029446 48.544601 5.513700 0.654879 0.068357 0.488293 0.000000 0.000000 0.000000 -3.816553 -0.302729 -0.341844 5.873447 0.400353 -0.781231 4.519969 -0.888671 0.097645 -1.403518 10.207582 -2.837601 -5.920017 3.196273 -7.305295 0.499232 -4.623699 10.268669 0.185860 -3.784709 -3.403909 0.441009 -8.997713 -2.865715 5.669313 -10.474595 -9.378301 -0.158362 5.187615 14.706755 -0.691432 5.192728 -3.436693 3.892220 9.601548 5.726410 3.383426 -2.095856 8.594649 -5.670161 0.438348 -8.981959 5.279890 -8.208358 -4.393259 5.011501 2.485171 0.684066 -10.391484 -0.522500 5.867781 
-5.020009 48.539818 5.513970 0.635295 0.058591 0.517588 0.000000 0.000000 0.000000 -3.758018 -0.292964 -0.341842 5.803819 0.458935 -0.839817 4.735163 -0.976562 0.068349 -1.379659 10.273257 -2.787874 -5.996316 3.231703 -7.353156 0.505683 -4.622309 10.228946 0.169806 -3.844359 -3.402568 0.351599 -8.953637 -2.825666 5.532901 -10.459215 -8.889998 -0.146227 5.428356 14.025146 -1.138103 5.107155 -3.476407 3.913861 9.606062 5.687345 3.343102 -2.035979 8.236503 -5.696625 0.452704 -8.987021 5.273088 -8.212607 -4.383440 5.096692 2.488745 0.688941 -10.439183 -0.524073 5.889452 
-5.013592 48.523476 5.520473 0.635059 0.039061 0.429694 0.000000 0.000000 0.000000 -3.777814 -0.263668 -0.322307 5.775518 0.410116 -0.800761 4.979889 -0.849609 0.039058 -1.441755 10.169013 -2.797393 -5.903508 3.418238 -7.383688 0.511669 -4.552357 10.336011 -0.133706 -3.686223 -3.383300 0.386066 -8.984933 -2.846457 5.533599 -10.465645 -8.938461 -0.152187 5.418654 14.113567 -0.816027 5.156000 -3.438195 3.570673 9.601814 5.592814 4.151844 -1.977328 8.523555 -6.119562 0.514656 -9.077473 5.033737 -8.214865 -4.363988 5.549474 2.486037 0.735681 -10.667062 -0.530271 5.889920 
-5.012961 48.530266 5.523064 0.634975 0.029296 0.410161 0.000000 0.000000 0.000000 -3.787566 -0.283199 -0.302779 5.735603 0.449170 -0.839818 5.166016 -0.888672 -0.000151 -1.442239 10.159259 -2.797392 -5.873323 3.435643 -7.344071 0.531635 -4.598465 10.356259 0.172606 -3.726798 -3.402669 0.334765 -9.002102 -2.856125 5.551570 -10.460361 -8.836195 -0.149564 5.432502 14.261196 -0.939968 5.256181 -3.450769 3.708705 9.625545 5.666331 3.908433 -2.026190 8.507111 -6.007479 0.478735 -9.036973 5.115330 -8.191310 -4.361114 5.360182 2.478776 0.714157 -10.550489 -0.535062 5.874963 
-5.007676 48.532398 5.537917 0.605469 0.000000 0.458984 0.000000 0.000000 0.000000 -3.787325 -0.283198 -0.351606 5.812503 0.497986 -0.898404 4.999151 -0.996093 0.048821 -1.518055 10.173024 -2.806891 -5.820939 3.550466 -7.243567 0.524577 -4.609732 10.365996 0.099093 -3.809419 -3.398065 0.369994 -8.915700 -2.846470 5.504367 -10.532632 -8.889334 -0.151209 5.392197 14.279744 -0.895506 5.170804 -3.445410 3.805608 9.642698 5.709235 3.840354 -2.016431 8.345199 -6.022552 0.483434 -9.024686 5.296934 -8.176126 -4.370218 5.121294 2.505777 0.681304 -10.466233 -0.509289 5.897020 
-5.001253 48.533775 5.544076 0.566406 0.000000 0.400391 0.000000 0.000000 0.000000 -3.778085 -0.253903 -0.273478 5.881265 0.488225 -0.869109 4.891812 -1.123047 0.039055 -1.526193 10.113722 -2.776339 -5.778397 3.514839 -7.256331 0.520028 -4.620052 10.288130 0.046186 -3.744072 -3.394380 0.303700 -9.098090 -2.836838 5.697106 -10.501394 -8.809631 -0.149152 5.415606 14.407926 -1.051517 5.151646 -3.459356 3.872550 9.651145 5.701488 3.770172 -2.035504 8.319482 -5.996446 0.517650 -9.008972 5.355680 -8.185927 -4.401099 5.062984 2.535399 0.688328 -10.410975 -0.526491 5.876915 
-4.990815 48.519943 5.555195 0.517788 0.029296 0.410161 0.000000 0.000000 0.000000 -3.758275 -0.312496 -0.273487 5.851612 0.517520 -0.859340 5.067251 -1.083984 0.058583 -1.483322 10.189894 -2.778124 -5.838237 3.426064 -7.281718 0.512230 -4.592184 10.375732 0.005951 -3.726887 -3.391901 0.368101 -8.983912 -2.836822 5.640404 -10.567451 -8.966187 -0.154424 5.287309 14.600620 -0.928170 5.061234 -3.447766 3.710003 9.597876 5.584305 4.212255 -1.929696 8.560304 -6.191099 0.500610 -9.117487 5.218806 -8.254147 -4.438130 5.481874 2.564281 0.733929 -10.658950 -0.540631 5.884737 
-4.989437 48.518051 5.561724 0.488481 0.029296 0.390630 0.000000 0.000000 0.000000 -3.757980 -0.361324 -0.283259 5.850542 0.595638 -0.849563 5.212757 -1.113279 0.107402 -1.428769 10.304612 -2.778203 -5.921781 3.374332 -7.302643 0.492966 -4.556516 10.463342 0.128983 -3.817431 -3.399995 0.481895 -8.754354 -2.804830 5.349287 -10.642291 -8.760721 -0.149769 5.375326 14.416754 -0.832660 5.106090 -3.439504 3.769222 9.589594 5.554639 4.236057 -1.893844 8.384190 -6.263789 0.511645 -9.146419 5.249302 -8.236758 -4.426215 5.515585 2.537035 0.744714 -10.666112 -0.530251 5.900742 
-4.990318 48.514416 5.567575 0.479100 0.087889 0.380874 0.000000 0.000000 0.000000 -3.737982 -0.400384 -0.322326 5.793431 0.468692 -0.898407 5.359837 -1.093749 0.078111 -1.410375 10.117647 -2.766893 -5.871460 3.356164 -7.454008 0.494034 -4.478031 10.658035 0.141075 -3.855845 -3.400590 0.522529 -8.951706 -2.796636 5.543390 -10.616652 -9.027362 -0.153756 5.277807 14.620071 -0.832943 5.096201 -3.449141 3.804903 9.534286 5.589680 4.170873 -1.957533 8.435017 -6.235536 0.496185 -9.099279 5.163825 -8.307240 -4.473080 5.731349 2.507083 0.776216 -10.775215 -0.539716 5.908636 
